<svg width="550" height="75" viewBox="0 0 550 75" fill="none" xmlns="http://www.w3.org/2000/svg">
<path d="M54.8837 60.3029C53.3205 64.8286 50.2984 71.72 41.5448 71.72H8.3016L53.4248 3.5257V1.57141H4.34159L2.25738 14.9429H3.50791C5.07107 10.4171 8.09318 3.5257 16.8469 3.5257H45.2963L0.381592 71.72V73.5714H54.1542L56.1342 60.3029H54.8837ZM133.428 65.8571L106.229 1.57141H97.1624V2.90856C100.393 3.31999 101.852 5.99428 100.185 10.3143L78.7172 65.8571C77.3624 69.3543 75.2782 72.0286 71.318 72.3371V73.5714H84.9698V72.3371C81.114 72.0286 79.2382 70.0743 80.8014 65.8571L87.3666 49.0914H119.151L126.341 65.8571C127.905 69.56 126.029 72.0286 122.173 72.3371V73.5714H141.035V72.3371C137.075 72.0286 134.887 69.3543 133.428 65.8571ZM88.0961 47.1371L102.477 9.90285H102.581L118.317 47.1371H88.0961ZM204.017 1.57141H148.265L146.285 14.9429H147.535C149.098 10.4171 152.12 3.5257 160.874 3.5257H172.65V65.8571C172.65 69.9714 171.608 72.0286 167.752 72.3371V73.5714H184.53V72.3371C180.674 72.0286 179.632 69.9714 179.632 65.8571V3.5257H191.408C200.161 3.5257 203.184 10.4171 204.747 14.9429H205.997L204.017 1.57141ZM258.861 0.542847C237.81 0.542847 220.616 15.9714 220.616 37.5714C220.616 59.2743 237.81 74.6 258.861 74.6C280.016 74.6 297.21 59.2743 297.21 37.5714C297.21 15.9714 280.016 0.542847 258.861 0.542847ZM258.861 72.8514C242.708 72.8514 227.806 59.8914 227.806 37.5714C227.806 15.3543 242.708 2.39428 258.861 2.39428C275.014 2.39428 289.916 15.3543 289.916 37.5714C289.916 59.8914 275.014 72.8514 258.861 72.8514ZM394.271 65.8571L382.704 9.28571C381.87 5.27428 382.808 3.21714 386.664 2.90856V1.57141H378.327L356.338 64.9314L332.683 1.57141H323.512V2.90856C327.472 3.21714 328.201 5.06857 327.576 9.28571L318.718 65.8571C318.093 70.28 316.217 72.0286 312.361 72.3371V73.5714H325.388V72.3371C321.428 72.0286 320.177 70.28 320.907 65.8571L329.452 10.9314L352.587 73.5714H355.505L377.076 11.4457L387.497 65.8571C388.227 69.9714 386.559 72.0286 382.6 72.3371V73.5714H400.837V72.3371C396.876 72.0286 395.21 70.28 394.271 65.8571ZM478.075 65.8571L450.876 1.57141H441.81V2.90856C445.04 3.31999 446.499 5.99428 444.832 10.3143L423.364 65.8571C422.01 69.3543 419.926 72.0286 415.966 72.3371V73.5714H429.617V72.3371C425.761 72.0286 423.886 70.0743 425.449 65.8571L432.014 49.0914H463.798L470.989 65.8571C472.552 69.56 470.676 72.0286 466.82 72.3371V73.5714H485.682V72.3371C481.722 72.0286 479.534 69.3543 478.075 65.8571ZM432.743 47.1371L447.124 9.90285H447.229L462.964 47.1371H432.743ZM536.131 1.57141V2.80571C540.091 3.21714 541.342 5.17142 539.153 9.28571L521.75 41.1714L502.575 9.28571C500.179 5.37713 501.742 3.21714 505.597 2.80571V1.57141H486.735V2.80571C490.695 3.21714 493.196 5.68571 495.281 9.28571L515.914 43.9486V65.8571C515.914 69.9714 514.872 72.0286 511.016 72.3371V73.5714H527.794V72.3371C523.938 72.0286 522.896 69.9714 522.896 65.8571V43.1257L541.237 9.28571C543.113 5.89142 545.927 3.21714 549.783 2.80571V1.57141H536.131Z" fill="#602C17"/>
</svg>
