<svg width="795" height="184" viewBox="0 0 795 184" fill="none" xmlns="http://www.w3.org/2000/svg">
<g clip-path="url(#clip0)">
<path d="M185.824 121L148.24 31H135.712V32.872C140.176 33.448 142.192 37.192 139.888 43.24L110.224 121C108.352 125.896 105.472 129.64 100 130.072V131.8H118.864V130.072C113.536 129.64 110.944 126.904 113.104 121L122.176 97.528H166.096L176.032 121C178.192 126.184 175.6 129.64 170.272 130.072V131.8H196.336V130.072C190.864 129.64 187.84 125.896 185.824 121ZM123.184 94.792L143.056 42.664H143.2L164.944 94.792H123.184Z" fill="#E2CFC0"/>
</g>
<g clip-path="url(#clip1)">
<path d="M674.824 122L637.24 32H624.712V33.872C629.176 34.448 631.192 38.192 628.888 44.24L599.224 122C597.352 126.896 594.472 130.64 589 131.072V132.8H607.864V131.072C602.536 130.64 599.944 127.904 602.104 122L611.176 98.528H655.096L665.032 122C667.192 127.184 664.6 130.64 659.272 131.072V132.8H685.336V131.072C679.864 130.64 676.84 126.896 674.824 122ZM612.184 95.792L632.056 43.664H632.2L653.944 95.792H612.184Z" fill="#E2CFC0"/>
</g>
<g clip-path="url(#clip2)">
<path d="M75.7583 113.224C73.5983 119.56 69.4222 129.208 57.3263 129.208H11.3903L73.7423 33.736V31H5.91829L3.03829 49.72H4.76629C6.92629 43.384 11.1023 33.736 23.1983 33.736H62.5103L0.446289 129.208V131.8H74.7502L77.4863 113.224H75.7583Z" fill="#E2CFC0"/>
</g>
<g clip-path="url(#clip3)">
<path d="M298.776 31H221.736L219 49.72H220.728C222.888 43.384 227.064 33.736 239.16 33.736H255.432V121C255.432 126.76 253.992 129.64 248.664 130.072V131.8H271.848V130.072C266.52 129.64 265.08 126.76 265.08 121V33.736H281.352C293.448 33.736 297.624 43.384 299.784 49.72H301.512L298.776 31Z" fill="#E2CFC0"/>
</g>
<path d="M423.704 101.735C426.148 95.6259 427.37 89.1092 427.472 82.4907C427.472 75.7704 426.25 69.2537 423.908 63.0425C421.26 56.7294 417.595 51.0273 412.809 46.038L411.995 45.2234C407.005 40.4377 401.201 36.6702 394.888 34.0228C388.677 31.6809 382.16 30.459 375.44 30.459C368.821 30.5608 362.305 31.7827 356.195 34.2264C349.882 36.8738 344.18 40.7431 339.293 45.6307C334.303 50.62 330.536 56.2203 327.888 62.5333C325.343 68.7446 324.121 75.2613 324.019 81.8798C324.019 88.6001 325.241 95.1168 327.685 101.226C330.23 107.641 333.998 113.445 338.885 118.333L339.7 119.147C344.587 124.035 350.29 127.7 356.704 130.246C362.814 132.69 369.331 133.912 376.051 133.912C382.669 133.81 389.186 132.588 395.397 130.042C401.71 127.395 407.412 123.729 412.402 118.74C417.289 113.852 421.057 108.048 423.704 101.735ZM371.672 129.126C359.352 130.246 348.049 126.682 339.904 118.74L339.191 118.027C331.35 109.983 327.685 98.5788 328.805 86.2582C330.129 73.7339 335.932 61.6169 345.606 51.9437C355.177 42.3723 367.396 36.4666 379.818 35.2447C392.241 34.0228 403.543 37.7903 411.587 45.6307L412.3 46.3434C420.242 54.4893 423.908 65.6899 422.686 78.1123C421.464 90.5348 415.558 102.754 405.987 112.325C396.314 121.998 384.197 127.802 371.672 129.126Z" fill="#E2CFC0"/>
<path d="M559.184 120L543.2 40.8C542.048 35.184 543.344 32.304 548.672 31.872V30H537.152L506.768 118.704L474.08 30H461.408V31.872C466.88 32.304 467.888 34.896 467.024 40.8L454.784 120C453.92 126.192 451.328 128.64 446 129.072V130.8H464V129.072C458.528 128.64 456.8 126.192 457.808 120L469.616 43.104L501.584 130.8H505.616L535.424 43.824L549.824 120C550.832 125.76 548.528 128.64 543.056 129.072V130.8H568.256V129.072C562.784 128.64 560.48 126.192 559.184 120Z" fill="#E2CFC0"/>
<g clip-path="url(#clip4)">
<path d="M776.256 32V33.728C781.728 34.304 783.456 37.04 780.432 42.8L756.384 87.44L729.888 42.8C726.576 37.328 728.736 34.304 734.064 33.728V32H708V33.728C713.472 34.304 716.928 37.76 719.808 42.8L748.32 91.328V122C748.32 127.76 746.88 130.64 741.552 131.072V132.8H764.736V131.072C759.408 130.64 757.968 127.76 757.968 122V90.176L783.312 42.8C785.904 38.048 789.792 34.304 795.12 33.728V32H776.256Z" fill="#E2CFC0"/>
</g>
<defs>
<clipPath id="clip0">
<rect x="98" y="30" width="97" height="101" fill="white"/>
</clipPath>
<clipPath id="clip1">
<rect x="589" y="30" width="97" height="101" fill="white"/>
</clipPath>
<clipPath id="clip2">
<rect y="30" width="78" height="101" fill="white"/>
</clipPath>
<clipPath id="clip3">
<rect x="215" y="30" width="84" height="101" fill="white"/>
</clipPath>
<clipPath id="clip4">
<rect x="706" y="30" width="89" height="101" fill="white"/>
</clipPath>
</defs>
</svg>
